<?xml version="1.0" encoding="UTF-8" standalone="no"?>
<!-- Created with Inkscape (http://www.inkscape.org/) -->

<svg
   xmlns:dc="http://purl.org/dc/elements/1.1/"
   xmlns:cc="http://creativecommons.org/ns#"
   xmlns:rdf="http://www.w3.org/1999/02/22-rdf-syntax-ns#"
   xmlns:svg="http://www.w3.org/2000/svg"
   xmlns="http://www.w3.org/2000/svg"
   xmlns:sodipodi="http://sodipodi.sourceforge.net/DTD/sodipodi-0.dtd"
   xmlns:inkscape="http://www.inkscape.org/namespaces/inkscape"
   width="45"
   height="380"
   viewBox="0 0 11.90625 100.54167"
   version="1.1"
   id="svg8"
   inkscape:version="0.92.2 5c3e80d, 2017-08-06"
   sodipodi:docname="SignalSplitter.svg">
  <defs
     id="defs2" />
  <sodipodi:namedview
     id="base"
     pagecolor="#ffffff"
     bordercolor="#666666"
     borderopacity="1.0"
     inkscape:pageopacity="0.0"
     inkscape:pageshadow="2"
     inkscape:zoom="2.8526317"
     inkscape:cx="-68.559194"
     inkscape:cy="405.5182"
     inkscape:document-units="mm"
     inkscape:current-layer="layer1"
     showgrid="true"
     units="px"
     inkscape:pagecheckerboard="true"
     inkscape:window-width="1216"
     inkscape:window-height="755"
     inkscape:window-x="0"
     inkscape:window-y="1"
     inkscape:window-maximized="1">
    <inkscape:grid
       type="xygrid"
       id="grid815"
       originx="-0.13229167"
       originy="-0.13229167" />
  </sodipodi:namedview>
  <metadata
     id="metadata5">
    <rdf:RDF>
      <cc:Work
         rdf:about="">
        <dc:format>image/svg+xml</dc:format>
        <dc:type
           rdf:resource="http://purl.org/dc/dcmitype/StillImage" />
        <dc:title />
      </cc:Work>
    </rdf:RDF>
  </metadata>
  <g
     inkscape:label="Layer 1"
     inkscape:groupmode="layer"
     id="layer1"
     transform="translate(0,-196.45833)">
    <rect
       style="fill:#828585;fill-opacity:1;stroke:#ffffff;stroke-width:0.26458333;stroke-miterlimit:4;stroke-dasharray:none;stroke-opacity:1"
       id="rect819"
       width="11.96875"
       height="101.06948"
       x="-0.031249989"
       y="196.19444" />
    <g
       aria-label="SIGNAL SPLITTER"
       style="font-style:normal;font-variant:normal;font-weight:normal;font-stretch:normal;font-size:1.41111112px;line-height:1.25;font-family:Futura;-inkscape-font-specification:Futura;text-align:center;letter-spacing:0px;word-spacing:0px;text-anchor:middle;fill:#ffffff;fill-opacity:1;stroke:none;stroke-width:0.26458332"
       id="text836">
      <path
         d="m 3.0523549,201.68592 -0.1953369,0.11575 q -0.054777,-0.0951 -0.1043864,-0.12402 -0.051676,-0.0331 -0.1333252,-0.0331 -0.1002523,0 -0.1663981,0.0568 -0.066146,0.0558 -0.066146,0.14056 0,0.11679 0.1736328,0.1881 l 0.1591634,0.0651 q 0.1943034,0.0785 0.2842204,0.19223 0.089917,0.11266 0.089917,0.27699 0,0.22014 -0.146761,0.3638 -0.1477946,0.14469 -0.3669027,0.14469 -0.2077392,0 -0.3431315,-0.12299 -0.1333251,-0.12299 -0.1663981,-0.34623 l 0.2439128,-0.0537 q 0.016536,0.14056 0.057878,0.1943 0.074414,0.10336 0.217041,0.10336 0.1126546,0 0.1870687,-0.0754 0.074414,-0.0755 0.074414,-0.1912 0,-0.0465 -0.013436,-0.0848 -0.012402,-0.0393 -0.040308,-0.0713 -0.026872,-0.0331 -0.07028,-0.061 -0.043408,-0.0289 -0.1033529,-0.0548 l -0.1539957,-0.0641 q -0.3276286,-0.13849 -0.3276286,-0.40514 0,-0.17984 0.1374593,-0.30076 0.1374593,-0.12196 0.342098,-0.12196 0.2759521,0 0.4309814,0.26872 z"
         style="font-size:2.11666656px;text-align:center;text-anchor:middle;fill:#ffffff;fill-opacity:1;stroke-width:0.26458332"
         id="path840" />
      <path
         d="m 3.6269968,201.44821 v 1.59577 H 3.3861846 v -1.59577 z"
         style="font-size:2.11666656px;text-align:center;text-anchor:middle;fill:#ffffff;fill-opacity:1;stroke-width:0.26458332"
         id="path842" />
      <path
         d="m 4.8310576,202.21302 h 0.6593912 v 0.0527 q 0,0.17983 -0.042375,0.31833 -0.041341,0.12815 -0.1395264,0.23977 -0.2222087,0.25012 -0.5653401,0.25012 -0.3348633,0 -0.5736084,-0.24185 -0.2387451,-0.24288 -0.2387451,-0.58291 0,-0.34726 0.2428792,-0.58911 0.2428792,-0.24288 0.5911784,-0.24288 0.1870686,0 0.3493326,0.0765 0.1550293,0.0765 0.304891,0.24805 l -0.1715658,0.16433 q -0.1963704,-0.26148 -0.4785237,-0.26148 -0.2532145,0 -0.4247803,0.17466 -0.1715657,0.17157 -0.1715657,0.42995 0,0.26665 0.1912028,0.43925 0.1788004,0.1602 0.3875732,0.1602 0.1777669,0 0.3193603,-0.11989 0.1415934,-0.12092 0.1581299,-0.28939 H 4.8310576 Z"
         style="font-size:2.11666656px;text-align:center;text-anchor:middle;fill:#ffffff;fill-opacity:1;stroke-width:0.26458332"
         id="path844" />
      <path
         d="m 5.7922391,203.04398 v -1.70429 l 1.1637532,1.21749 v -1.10897 h 0.2408122 v 1.69292 l -1.1637532,-1.2144 v 1.11725 z"
         style="font-size:2.11666656px;text-align:center;text-anchor:middle;fill:#ffffff;fill-opacity:1;stroke-width:0.26458332"
         id="path846" />
      <path
         d="M 8.5279894,202.6564 H 7.844827 l -0.1777669,0.38758 H 7.4076444 l 0.7896159,-1.69602 0.7617105,1.69602 H 8.695421 Z m -0.098185,-0.22634 -0.2366781,-0.5426 -0.2480468,0.5426 z"
         style="font-size:2.11666656px;text-align:center;text-anchor:middle;fill:#ffffff;fill-opacity:1;stroke-width:0.26458332"
         id="path848" />
      <path
         d="m 9.3982203,201.44821 v 1.36942 h 0.469222 v 0.22635 H 9.1574082 v -1.59577 z"
         style="font-size:2.11666656px;text-align:center;text-anchor:middle;fill:#ffffff;fill-opacity:1;stroke-width:0.26458332"
         id="path850" />
      <path
         d="m 2.7960398,204.33175 -0.1953369,0.11576 q -0.054777,-0.0951 -0.1043864,-0.12403 -0.051676,-0.0331 -0.1333252,-0.0331 -0.1002522,0 -0.1663981,0.0568 -0.066146,0.0558 -0.066146,0.14056 0,0.11678 0.1736328,0.1881 l 0.1591634,0.0651 q 0.1943034,0.0786 0.2842204,0.19224 0.089917,0.11265 0.089917,0.27698 0,0.22014 -0.1467611,0.3638 -0.1477946,0.1447 -0.3669027,0.1447 -0.2077392,0 -0.3431314,-0.12299 -0.1333252,-0.12299 -0.1663982,-0.34623 l 0.2439128,-0.0537 q 0.016536,0.14056 0.057878,0.19431 0.074414,0.10335 0.217041,0.10335 0.1126546,0 0.1870687,-0.0754 0.074414,-0.0754 0.074414,-0.1912 0,-0.0465 -0.013436,-0.0847 -0.012402,-0.0393 -0.040308,-0.0713 -0.026872,-0.0331 -0.07028,-0.061 -0.043408,-0.0289 -0.1033529,-0.0548 l -0.1539957,-0.0641 q -0.3276286,-0.13849 -0.3276286,-0.40514 0,-0.17984 0.1374593,-0.30076 0.1374593,-0.12195 0.342098,-0.12195 0.2759521,0 0.4309814,0.26871 z"
         style="font-size:2.11666656px;text-align:center;text-anchor:middle;fill:#ffffff;fill-opacity:1;stroke-width:0.26458332"
         id="path852" />
      <path
         d="m 3.3706817,205.04179 v 0.64802 H 3.1298695 v -1.59577 h 0.2728516 q 0.2005045,0 0.3028239,0.0279 0.1033528,0.0279 0.181901,0.10542 0.1374593,0.13435 0.1374593,0.33899 0,0.21911 -0.1467611,0.34727 -0.146761,0.12816 -0.3958414,0.12816 z m 0,-0.22325 h 0.089917 q 0.3317627,0 0.3317627,-0.25528 0,-0.24701 -0.342098,-0.24701 h -0.079582 z"
         style="font-size:2.11666656px;text-align:center;text-anchor:middle;fill:#ffffff;fill-opacity:1;stroke-width:0.26458332"
         id="path854" />
      <path
         d="m 4.5158314,204.09404 v 1.36943 h 0.469222 v 0.22634 H 4.2750193 v -1.59577 z"
         style="font-size:2.11666656px;text-align:center;text-anchor:middle;fill:#ffffff;fill-opacity:1;stroke-width:0.26458332"
         id="path856" />
      <path
         d="m 5.4542753,204.09404 v 1.59577 H 5.2134632 v -1.59577 z"
         style="font-size:2.11666656px;text-align:center;text-anchor:middle;fill:#ffffff;fill-opacity:1;stroke-width:0.26458332"
         id="path858" />
      <path
         d="m 6.2779977,204.32038 v 1.36943 H 6.0371855 v -1.36943 H 5.6702829 v -0.22634 h 0.9735839 v 0.22634 z"
         style="font-size:2.11666656px;text-align:center;text-anchor:middle;fill:#ffffff;fill-opacity:1;stroke-width:0.26458332"
         id="path860" />
      <path
         d="m 7.2991237,204.32038 v 1.36943 H 7.0583116 v -1.36943 H 6.6914089 v -0.22634 h 0.973584 v 0.22634 z"
         style="font-size:2.11666656px;text-align:center;text-anchor:middle;fill:#ffffff;fill-opacity:1;stroke-width:0.26458332"
         id="path862" />
      <path
         d="M 8.7605332,204.32038 H 8.120779 v 0.38344 h 0.6211507 v 0.22635 H 8.120779 v 0.5333 h 0.6397542 v 0.22634 H 7.8799668 v -1.59577 h 0.8805664 z"
         style="font-size:2.11666656px;text-align:center;text-anchor:middle;fill:#ffffff;fill-opacity:1;stroke-width:0.26458332"
         id="path864" />
      <path
         d="m 9.6193958,205.00975 0.4940262,0.68006 H 9.8188668 l -0.4557861,-0.65319 h -0.043408 v 0.65319 H 9.0788604 v -1.59577 h 0.2821533 q 0.3162597,0 0.4568196,0.11886 0.1550293,0.13229 0.1550293,0.34933 0,0.1695 -0.097152,0.29145 -0.097152,0.12196 -0.2563151,0.15607 z m -0.2997233,-0.18294 h 0.076481 q 0.342098,0 0.342098,-0.26148 0,-0.24495 -0.3327962,-0.24495 h -0.085783 z"
         style="font-size:2.11666656px;text-align:center;text-anchor:middle;fill:#ffffff;fill-opacity:1;stroke-width:0.26458332"
         id="path866" />
    </g>
    <text
       xml:space="preserve"
       style="font-style:normal;font-variant:normal;font-weight:normal;font-stretch:normal;font-size:1.41111112px;line-height:1.25;font-family:Futura;-inkscape-font-specification:Futura;letter-spacing:0px;word-spacing:0px;fill:#ffffff;fill-opacity:0;stroke:none;stroke-width:0.26458332;"
       x="7.8052082"
       y="217.75729"
       id="text871"><tspan
         sodipodi:role="line"
         id="tspan869"
         x="7.8052082"
         y="217.75729"
         style="stroke-width:0.26458332;fill:#ffffff;fill-opacity:0;">IN</tspan></text>
  </g>
</svg>
