<?xml version="1.0" encoding="UTF-8" standalone="no"?>
<!-- Created with Inkscape (http://www.inkscape.org/) -->

<svg
   xmlns:dc="http://purl.org/dc/elements/1.1/"
   xmlns:cc="http://creativecommons.org/ns#"
   xmlns:rdf="http://www.w3.org/1999/02/22-rdf-syntax-ns#"
   xmlns:svg="http://www.w3.org/2000/svg"
   xmlns="http://www.w3.org/2000/svg"
   xmlns:sodipodi="http://sodipodi.sourceforge.net/DTD/sodipodi-0.dtd"
   xmlns:inkscape="http://www.inkscape.org/namespaces/inkscape"
   width="45"
   height="380"
   viewBox="0 0 11.90625 100.54167"
   version="1.1"
   id="svg8"
   inkscape:version="0.92.2 5c3e80d, 2017-08-06"
   sodipodi:docname="ReferenceOscillator.svg">
  <defs
     id="defs2" />
  <sodipodi:namedview
     id="base"
     pagecolor="#ffffff"
     bordercolor="#666666"
     borderopacity="1.0"
     inkscape:pageopacity="0"
     inkscape:pageshadow="2"
     inkscape:zoom="5.656854"
     inkscape:cx="35.158971"
     inkscape:cy="388.54131"
     inkscape:document-units="mm"
     inkscape:current-layer="layer1"
     showgrid="true"
     inkscape:window-width="1216"
     inkscape:window-height="755"
     inkscape:window-x="0"
     inkscape:window-y="0"
     inkscape:window-maximized="0"
     objecttolerance="25"
     units="px"
     guidetolerance="10000">
    <inkscape:grid
       type="xygrid"
       id="grid925"
       empspacing="10" />
  </sodipodi:namedview>
  <metadata
     id="metadata5">
    <rdf:RDF>
      <cc:Work
         rdf:about="">
        <dc:format>image/svg+xml</dc:format>
        <dc:type
           rdf:resource="http://purl.org/dc/dcmitype/StillImage" />
        <dc:title />
        <cc:license
           rdf:resource="http://creativecommons.org/licenses/by/4.0/" />
      </cc:Work>
      <cc:License
         rdf:about="http://creativecommons.org/licenses/by/4.0/">
        <cc:permits
           rdf:resource="http://creativecommons.org/ns#Reproduction" />
        <cc:permits
           rdf:resource="http://creativecommons.org/ns#Distribution" />
        <cc:requires
           rdf:resource="http://creativecommons.org/ns#Notice" />
        <cc:requires
           rdf:resource="http://creativecommons.org/ns#Attribution" />
        <cc:permits
           rdf:resource="http://creativecommons.org/ns#DerivativeWorks" />
      </cc:License>
    </rdf:RDF>
  </metadata>
  <g
     inkscape:label="Layer 1"
     inkscape:groupmode="layer"
     id="layer1"
     transform="translate(0,-196.45833)">
    <path
       style="fill:#828585;fill-opacity:1;stroke-width:0.26458333;stroke:#ffffff;stroke-opacity:1;stroke-miterlimit:4;stroke-dasharray:none"
       d="M 0,196.45833 H 11.90625 V 296.99998 H 0 Z"
       id="rect917" />
    <rect
       style="fill:none;fill-opacity:1;stroke-width:0.02645833;stroke-miterlimit:4;stroke-dasharray:none"
       id="rect915"
       width="11.90625"
       height="100.54167"
       x="0"
       y="196.45833" />
    <g
       aria-label="440 HZ"
       style="font-style:normal;font-variant:normal;font-weight:normal;font-stretch:normal;font-size:2.11666656px;line-height:1.25;font-family:Futura;-inkscape-font-specification:Futura;letter-spacing:0px;word-spacing:0px;fill:#ffffff;fill-opacity:1;stroke:none;stroke-width:0.26458332"
       id="text911"
       transform="translate(-3.0370238,3.9429233)">
      <path
         d="m 6.3355304,198.65871 h 0.1694987 v 0.2191 H 6.3355304 v 0.22635 H 6.0947182 v -0.22635 H 5.3113036 l 1.0242268,-1.48828 z m -0.2408122,0 v -0.53434 l -0.3679362,0.53434 z"
         style="font-size:2.11666656px;fill:#ffffff;fill-opacity:1;stroke-width:0.26458332"
         id="path913"
         inkscape:connector-curvature="0" />
      <path
         d="m 7.6419105,198.65871 h 0.1694987 v 0.2191 H 7.6419105 v 0.22635 H 7.4010984 v -0.22635 H 6.6176837 l 1.0242268,-1.48828 z m -0.2408121,0 v -0.53434 l -0.3679362,0.53434 z"
         style="font-size:2.11666656px;fill:#ffffff;fill-opacity:1;stroke-width:0.26458332"
         id="path915"
         inkscape:connector-curvature="0" />
      <path
         d="m 7.9943438,198.29594 q 0,-0.38137 0.1777669,-0.60875 0.1591634,-0.20567 0.3855062,-0.20567 0.2263427,0 0.3855061,0.20567 0.177767,0.22738 0.177767,0.61908 0,0.39068 -0.177767,0.61805 -0.1591634,0.20567 -0.3844726,0.20567 -0.2253092,0 -0.3865397,-0.20567 -0.1777669,-0.22737 -0.1777669,-0.62838 z m 0.236678,0.001 q 0,0.26562 0.091984,0.44132 0.091984,0.1726 0.234611,0.1726 0.1415934,0 0.234611,-0.1726 0.093018,-0.17157 0.093018,-0.43305 0,-0.26148 -0.093018,-0.43408 -0.093018,-0.17157 -0.234611,-0.17157 -0.1405599,0 -0.2335775,0.17157 -0.093018,0.17053 -0.093018,0.42581 z"
         style="font-size:2.11666656px;fill:#ffffff;fill-opacity:1;stroke-width:0.26458332"
         id="path917"
         inkscape:connector-curvature="0" />
      <path
         d="m 10.296012,198.13264 h 0.68833 v -0.62425 h 0.240812 v 1.59577 h -0.240812 v -0.74518 h -0.68833 v 0.74518 H 10.0552 v -1.59577 h 0.240812 z"
         style="font-size:2.11666656px;fill:#ffffff;fill-opacity:1;stroke-width:0.26458332"
         id="path919"
         inkscape:connector-curvature="0" />
      <path
         d="m 11.885579,198.87781 h 0.765845 v 0.22635 h -1.161686 l 0.783414,-1.36943 h -0.655257 v -0.22634 h 1.051099 z"
         style="font-size:2.11666656px;fill:#ffffff;fill-opacity:1;stroke-width:0.26458332"
         id="path921"
         inkscape:connector-curvature="0" />
    </g>
  </g>
</svg>
